<?xml version="1.0" encoding="UTF-8"?>
<!--Generator: Apple Native CoreSVG 175.5-->
<!DOCTYPE svg
PUBLIC "-//W3C//DTD SVG 1.1//EN"
       "http://www.w3.org/Graphics/SVG/1.1/DTD/svg11.dtd">
<svg version="1.1" xmlns="http://www.w3.org/2000/svg" xmlns:xlink="http://www.w3.org/1999/xlink" width="3300" height="2200">
 <!--glyph: "uni100206.medium", point size: 100.0, font version: "18.0d12e2", template writer version: "101"-->
 <style>.monochrome-0 {fill:#000000}
.monochrome-1 {fill:#000000}

.hierarchical-0:secondary {fill:#4D4D4D}
.hierarchical-1:primary {fill:#212121}

.SFSymbolsPreview212121 {fill:#212121;opacity:1.0}
.SFSymbolsPreview4D4D4D {fill:#4D4D4D;opacity:1.0}
</style>
 <g id="Notes">
  <rect height="2200" id="artboard" style="fill:white;opacity:1" width="3300" x="0" y="0"/>
  <line style="fill:none;stroke:black;opacity:1;stroke-width:0.5;" x1="263" x2="3036" y1="292" y2="292"/>
  <text style="stroke:none;fill:black;font-family:sans-serif;font-size:13;font-weight:bold;" transform="matrix(1 0 0 1 263 322)">Weight/Scale Variations</text>
  <text style="stroke:none;fill:black;font-family:sans-serif;font-size:13;text-anchor:middle;" transform="matrix(1 0 0 1 559.711 322)">Ultralight</text>
  <text style="stroke:none;fill:black;font-family:sans-serif;font-size:13;text-anchor:middle;" transform="matrix(1 0 0 1 856.422 322)">Thin</text>
  <text style="stroke:none;fill:black;font-family:sans-serif;font-size:13;text-anchor:middle;" transform="matrix(1 0 0 1 1153.13 322)">Light</text>
  <text style="stroke:none;fill:black;font-family:sans-serif;font-size:13;text-anchor:middle;" transform="matrix(1 0 0 1 1449.84 322)">Regular</text>
  <text style="stroke:none;fill:black;font-family:sans-serif;font-size:13;text-anchor:middle;" transform="matrix(1 0 0 1 1746.56 322)">Medium</text>
  <text style="stroke:none;fill:black;font-family:sans-serif;font-size:13;text-anchor:middle;" transform="matrix(1 0 0 1 2043.27 322)">Semibold</text>
  <text style="stroke:none;fill:black;font-family:sans-serif;font-size:13;text-anchor:middle;" transform="matrix(1 0 0 1 2339.98 322)">Bold</text>
  <text style="stroke:none;fill:black;font-family:sans-serif;font-size:13;text-anchor:middle;" transform="matrix(1 0 0 1 2636.69 322)">Heavy</text>
  <text style="stroke:none;fill:black;font-family:sans-serif;font-size:13;text-anchor:middle;" transform="matrix(1 0 0 1 2933.4 322)">Black</text>
  <line style="fill:none;stroke:black;opacity:1;stroke-width:0.5;" x1="263" x2="3036" y1="1903" y2="1903"/>
  <g transform="matrix(1 0 0 1 263 1933)">
   <path d="M9.24805 0.830078C13.5547 0.830078 17.1387-2.74414 17.1387-7.05078C17.1387-11.3574 13.5449-14.9316 9.23828-14.9316C4.94141-14.9316 1.36719-11.3574 1.36719-7.05078C1.36719-2.74414 4.95117 0.830078 9.24805 0.830078ZM9.24805-0.654297C5.70312-0.654297 2.87109-3.49609 2.87109-7.05078C2.87109-10.6055 5.69336-13.4473 9.23828-13.4473C12.793-13.4473 15.6445-10.6055 15.6445-7.05078C15.6445-3.49609 12.8027-0.654297 9.24805-0.654297ZM5.6543-7.05078C5.6543-6.62109 5.95703-6.32812 6.40625-6.32812L8.50586-6.32812L8.50586-4.20898C8.50586-3.76953 8.79883-3.4668 9.22852-3.4668C9.67773-3.4668 9.9707-3.76953 9.9707-4.20898L9.9707-6.32812L12.0898-6.32812C12.5293-6.32812 12.832-6.62109 12.832-7.05078C12.832-7.49023 12.5293-7.79297 12.0898-7.79297L9.9707-7.79297L9.9707-9.90234C9.9707-10.3516 9.67773-10.6543 9.22852-10.6543C8.79883-10.6543 8.50586-10.3516 8.50586-9.90234L8.50586-7.79297L6.40625-7.79297C5.95703-7.79297 5.6543-7.49023 5.6543-7.05078Z"/>
  </g>
  <g transform="matrix(1 0 0 1 281.867 1933)">
   <path d="M11.709 2.91016C17.1582 2.91016 21.6699-1.61133 21.6699-7.05078C21.6699-12.5 17.1484-17.0117 11.6992-17.0117C6.25977-17.0117 1.74805-12.5 1.74805-7.05078C1.74805-1.61133 6.26953 2.91016 11.709 2.91016ZM11.709 1.25C7.09961 1.25 3.41797-2.44141 3.41797-7.05078C3.41797-11.6602 7.08984-15.3516 11.6992-15.3516C16.3086-15.3516 20.0098-11.6602 20.0098-7.05078C20.0098-2.44141 16.3184 1.25 11.709 1.25ZM7.17773-7.05078C7.17773-6.57227 7.50977-6.25 8.00781-6.25L10.8789-6.25L10.8789-3.36914C10.8789-2.88086 11.2109-2.53906 11.6895-2.53906C12.1777-2.53906 12.5195-2.87109 12.5195-3.36914L12.5195-6.25L15.4004-6.25C15.8887-6.25 16.2305-6.57227 16.2305-7.05078C16.2305-7.53906 15.8887-7.88086 15.4004-7.88086L12.5195-7.88086L12.5195-10.752C12.5195-11.25 12.1777-11.5918 11.6895-11.5918C11.2109-11.5918 10.8789-11.25 10.8789-10.752L10.8789-7.88086L8.00781-7.88086C7.50977-7.88086 7.17773-7.53906 7.17773-7.05078Z"/>
  </g>
  <g transform="matrix(1 0 0 1 305.646 1933)">
   <path d="M14.9707 5.66406C21.9336 5.66406 27.6953-0.0976562 27.6953-7.05078C27.6953-14.0137 21.9238-19.7754 14.9609-19.7754C8.00781-19.7754 2.25586-14.0137 2.25586-7.05078C2.25586-0.0976562 8.01758 5.66406 14.9707 5.66406ZM14.9707 3.84766C8.93555 3.84766 4.08203-1.01562 4.08203-7.05078C4.08203-13.0957 8.92578-17.9492 14.9609-17.9492C21.0059-17.9492 25.8691-13.0957 25.8691-7.05078C25.8691-1.01562 21.0156 3.84766 14.9707 3.84766ZM9.19922-7.05078C9.19922-6.5332 9.57031-6.17188 10.1172-6.17188L14.0625-6.17188L14.0625-2.2168C14.0625-1.67969 14.4336-1.29883 14.9512-1.29883C15.4883-1.29883 15.8594-1.66992 15.8594-2.2168L15.8594-6.17188L19.8145-6.17188C20.3516-6.17188 20.7324-6.5332 20.7324-7.05078C20.7324-7.59766 20.3613-7.96875 19.8145-7.96875L15.8594-7.96875L15.8594-11.9141C15.8594-12.4609 15.4883-12.8418 14.9512-12.8418C14.4336-12.8418 14.0625-12.4609 14.0625-11.9141L14.0625-7.96875L10.1172-7.96875C9.57031-7.96875 9.19922-7.59766 9.19922-7.05078Z"/>
  </g>
  <text style="stroke:none;fill:black;font-family:sans-serif;font-size:13;font-weight:bold;" transform="matrix(1 0 0 1 263 1953)">Design Variations</text>
  <text style="stroke:none;fill:black;font-family:sans-serif;font-size:13;" transform="matrix(1 0 0 1 263 1971)">Symbols are supported in up to nine weights and three scales.</text>
  <text style="stroke:none;fill:black;font-family:sans-serif;font-size:13;" transform="matrix(1 0 0 1 263 1989)">For optimal layout with text and other symbols, vertically align</text>
  <text style="stroke:none;fill:black;font-family:sans-serif;font-size:13;" transform="matrix(1 0 0 1 263 2007)">symbols with the adjacent text.</text>
  <line style="fill:none;stroke:#00AEEF;stroke-width:0.5;opacity:1.0;" x1="776" x2="776" y1="1919" y2="1933"/>
  <g transform="matrix(1 0 0 1 776 1933)">
   <path d="M3.31055 0.15625C3.82812 0.15625 4.08203-0.0390625 4.26758-0.585938L5.52734-4.0332L11.2891-4.0332L12.5488-0.585938C12.7344-0.0390625 12.9883 0.15625 13.4961 0.15625C14.0137 0.15625 14.3457-0.15625 14.3457-0.644531C14.3457-0.810547 14.3164-0.966797 14.2383-1.17188L9.6582-13.3691C9.43359-13.9648 9.0332-14.2676 8.4082-14.2676C7.80273-14.2676 7.39258-13.9746 7.17773-13.3789L2.59766-1.16211C2.51953-0.957031 2.49023-0.800781 2.49023-0.634766C2.49023-0.146484 2.80273 0.15625 3.31055 0.15625ZM6.00586-5.51758L8.37891-12.0898L8.42773-12.0898L10.8008-5.51758Z"/>
  </g>
  <line style="fill:none;stroke:#00AEEF;stroke-width:0.5;opacity:1.0;" x1="793.197" x2="793.197" y1="1919" y2="1933"/>
  <text style="stroke:none;fill:black;font-family:sans-serif;font-size:13;font-weight:bold;" transform="matrix(1 0 0 1 776 1953)">Margins</text>
  <text style="stroke:none;fill:black;font-family:sans-serif;font-size:13;" transform="matrix(1 0 0 1 776 1971)">Leading and trailing margins on the left and right side of each symbol</text>
  <text style="stroke:none;fill:black;font-family:sans-serif;font-size:13;" transform="matrix(1 0 0 1 776 1989)">can be adjusted by modifying the x-location of the margin guidelines.</text>
  <text style="stroke:none;fill:black;font-family:sans-serif;font-size:13;" transform="matrix(1 0 0 1 776 2007)">Modifications are automatically applied proportionally to all</text>
  <text style="stroke:none;fill:black;font-family:sans-serif;font-size:13;" transform="matrix(1 0 0 1 776 2025)">scales and weights.</text>
  <g transform="matrix(1 0 0 1 1289 1933)">
   <path d="M2.8418 1.86523L4.54102 3.57422C5.40039 4.44336 6.38672 4.38477 7.31445 3.35938L18.0078-8.42773L17.041-9.4043L6.42578 2.27539C6.07422 2.67578 5.74219 2.77344 5.27344 2.30469L4.10156 1.14258C3.63281 0.683594 3.74023 0.341797 4.14062-0.0195312L15.6152-10.8203L14.6387-11.7871L3.04688-0.898438C2.06055 0.0195312 1.98242 0.996094 2.8418 1.86523ZM9.25781-16.3281C8.83789-15.918 8.80859-15.3418 9.04297-14.9512C9.27734-14.5898 9.73633-14.3555 10.3809-14.5215C11.8457-14.8633 13.3691-14.9219 14.7949-13.9844L14.209-12.5293C13.8672-11.6992 14.043-11.1133 14.5801-10.5664L16.875-8.25195C17.3633-7.76367 17.7734-7.74414 18.3398-7.8418L19.4043-8.03711L20.0684-7.36328L20.0293-6.80664C19.9902-6.30859 20.1172-5.92773 20.6055-5.44922L21.3672-4.70703C21.8457-4.22852 22.4609-4.19922 22.9297-4.66797L25.8398-7.58789C26.3086-8.05664 26.2891-8.65234 25.8105-9.13086L25.0391-9.89258C24.5605-10.3711 24.1895-10.5273 23.7109-10.4883L23.1348-10.4395L22.4902-11.0742L22.7344-12.1973C22.8613-12.7637 22.7051-13.2031 22.1191-13.7891L19.9219-15.9766C16.582-19.2969 12.1484-19.2188 9.25781-16.3281ZM10.752-15.957C13.1836-17.7344 16.4746-17.4316 18.7012-15.2051L21.1328-12.793C21.3672-12.5586 21.4062-12.373 21.3379-12.0312L21.0156-10.5469L22.5195-9.0625L23.5059-9.12109C23.7598-9.13086 23.8379-9.11133 24.0332-8.91602L24.6094-8.33984L22.168-5.89844L21.5918-6.47461C21.3965-6.66992 21.3672-6.74805 21.377-7.01172L21.4453-7.98828L19.9512-9.47266L18.4277-9.21875C18.1055-9.15039 17.959-9.17969 17.7148-9.41406L15.7129-11.416C15.459-11.6504 15.4297-11.8164 15.5859-12.1875L16.4648-14.2773C14.9023-15.7324 12.8711-16.3574 10.8398-15.7617C10.6836-15.7227 10.625-15.8496 10.752-15.957Z"/>
  </g>
  <text style="stroke:none;fill:black;font-family:sans-serif;font-size:13;font-weight:bold;" transform="matrix(1 0 0 1 1289 1953)">Exporting</text>
  <text style="stroke:none;fill:black;font-family:sans-serif;font-size:13;" transform="matrix(1 0 0 1 1289 1971)">Symbols should be outlined when exporting to ensure the</text>
  <text style="stroke:none;fill:black;font-family:sans-serif;font-size:13;" transform="matrix(1 0 0 1 1289 1989)">design is preserved when submitting to Xcode.</text>
  <text id="template-version" style="stroke:none;fill:black;font-family:sans-serif;font-size:13;text-anchor:end;" transform="matrix(1 0 0 1 3036 1933)">Template v.4.0</text>
  <text style="stroke:none;fill:black;font-family:sans-serif;font-size:13;text-anchor:end;" transform="matrix(1 0 0 1 3036 1951)">Requires Xcode 14 or greater</text>
  <text id="descriptive-name" style="stroke:none;fill:black;font-family:sans-serif;font-size:13;text-anchor:end;" transform="matrix(1 0 0 1 3036 1969)">Generated from square.and.arrow.up.on.square</text>
  <text style="stroke:none;fill:black;font-family:sans-serif;font-size:13;text-anchor:end;" transform="matrix(1 0 0 1 3036 1987)">Typeset at 100 points</text>
  <text style="stroke:none;fill:black;font-family:sans-serif;font-size:13;" transform="matrix(1 0 0 1 263 726)">Small</text>
  <text style="stroke:none;fill:black;font-family:sans-serif;font-size:13;" transform="matrix(1 0 0 1 263 1156)">Medium</text>
  <text style="stroke:none;fill:black;font-family:sans-serif;font-size:13;" transform="matrix(1 0 0 1 263 1586)">Large</text>
 </g>
 <g id="Guides">
  <g id="H-reference" style="fill:#27AAE1;stroke:none;" transform="matrix(1 0 0 1 339 696)">
   <path d="M0.993654 0L3.63775 0L29.3281-67.1323L30.0303-67.1323L30.0303-70.459L28.1226-70.459ZM11.6885-24.4799L46.9815-24.4799L46.2315-26.7285L12.4385-26.7285ZM55.1196 0L57.7637 0L30.6382-70.459L29.4326-70.459L29.4326-67.1323Z"/>
  </g>
  <line id="Baseline-S" style="fill:none;stroke:#27AAE1;opacity:1;stroke-width:0.5;" x1="263" x2="3036" y1="696" y2="696"/>
  <line id="Capline-S" style="fill:none;stroke:#27AAE1;opacity:1;stroke-width:0.5;" x1="263" x2="3036" y1="625.541" y2="625.541"/>
  <g id="H-reference" style="fill:#27AAE1;stroke:none;" transform="matrix(1 0 0 1 339 1126)">
   <path d="M0.993654 0L3.63775 0L29.3281-67.1323L30.0303-67.1323L30.0303-70.459L28.1226-70.459ZM11.6885-24.4799L46.9815-24.4799L46.2315-26.7285L12.4385-26.7285ZM55.1196 0L57.7637 0L30.6382-70.459L29.4326-70.459L29.4326-67.1323Z"/>
  </g>
  <line id="Baseline-M" style="fill:none;stroke:#27AAE1;opacity:1;stroke-width:0.5;" x1="263" x2="3036" y1="1126" y2="1126"/>
  <line id="Capline-M" style="fill:none;stroke:#27AAE1;opacity:1;stroke-width:0.5;" x1="263" x2="3036" y1="1055.54" y2="1055.54"/>
  <g id="H-reference" style="fill:#27AAE1;stroke:none;" transform="matrix(1 0 0 1 339 1556)">
   <path d="M0.993654 0L3.63775 0L29.3281-67.1323L30.0303-67.1323L30.0303-70.459L28.1226-70.459ZM11.6885-24.4799L46.9815-24.4799L46.2315-26.7285L12.4385-26.7285ZM55.1196 0L57.7637 0L30.6382-70.459L29.4326-70.459L29.4326-67.1323Z"/>
  </g>
  <line id="Baseline-L" style="fill:none;stroke:#27AAE1;opacity:1;stroke-width:0.5;" x1="263" x2="3036" y1="1556" y2="1556"/>
  <line id="Capline-L" style="fill:none;stroke:#27AAE1;opacity:1;stroke-width:0.5;" x1="263" x2="3036" y1="1485.54" y2="1485.54"/>
  <line id="left-margin-Ultralight-S" style="fill:none;stroke:#00AEEF;stroke-width:0.5;opacity:1.0;" x1="508.966" x2="508.966" y1="600.785" y2="720.121"/>
  <line id="right-margin-Ultralight-S" style="fill:none;stroke:#00AEEF;stroke-width:0.5;opacity:1.0;" x1="610.456" x2="610.456" y1="600.785" y2="720.121"/>
  <line id="left-margin-Regular-S" style="fill:none;stroke:#00AEEF;stroke-width:0.5;opacity:1.0;" x1="1396.01" x2="1396.01" y1="600.785" y2="720.121"/>
  <line id="right-margin-Regular-S" style="fill:none;stroke:#00AEEF;stroke-width:0.5;opacity:1.0;" x1="1503.68" x2="1503.68" y1="600.785" y2="720.121"/>
  <line id="left-margin-Black-S" style="fill:none;stroke:#00AEEF;stroke-width:0.5;opacity:1.0;" x1="2875" x2="2875" y1="600.785" y2="720.121"/>
  <line id="right-margin-Black-S" style="fill:none;stroke:#00AEEF;stroke-width:0.5;opacity:1.0;" x1="2991.8" x2="2991.8" y1="600.785" y2="720.121"/>
 </g>
 <g id="Symbols">
  <g id="Black-S" transform="matrix(1 0 0 1 2875 696)">
   <path class="monochrome-0 hierarchical-0:secondary SFSymbolsPreview4D4D4D" d="M25 0.195312L69.8242 0.195312C79.3945 0.195312 85.0586-5.46875 85.0586-15.0391L85.0586-50.1465C85.0586-59.7168 79.3945-65.3809 69.8242-65.3809L60.9375-65.3809L60.9375-51.2207L67.5781-51.2207C69.8242-51.2207 70.8984-50.3418 70.8984-47.9004L70.8984-17.2852C70.8984-14.8438 69.8242-13.9648 67.5781-13.9648L27.2461-13.9648C25-13.9648 23.9258-14.8438 23.9258-17.2852L23.9258-47.9004C23.9258-50.3418 25-51.2207 27.2461-51.2207L34.2773-51.2207L34.2773-65.3809L25-65.3809C15.4297-65.3809 9.76562-59.7168 9.76562-50.1465L9.76562-15.0391C9.76562-5.46875 15.4297 0.195312 25 0.195312ZM49.707 21.9727L91.7969 21.9727C101.367 21.9727 107.031 16.3086 107.031 6.73828L107.031-34.668C107.031-44.2383 101.367-49.9023 91.7969-49.9023L81.4453-49.9023L81.4453-35.7422L89.5508-35.7422C91.7969-35.7422 92.8711-34.8633 92.8711-32.4219L92.8711 4.49219C92.8711 6.93359 91.7969 7.8125 89.5508 7.8125L51.9531 7.8125C49.707 7.8125 48.6328 6.93359 48.6328 4.49219L48.6328-4.6875L34.4727-4.6875L34.4727 6.73828C34.4727 16.3086 40.1367 21.9727 49.707 21.9727Z"/>
   <path class="monochrome-1 hierarchical-1:primary SFSymbolsPreview212121" d="M47.4121-32.959C50.8301-32.959 53.418-35.7422 53.418-38.916L53.418-73.877L52.8809-79.3457L54.248-76.0254L57.5195-72.5586C58.4961-71.5332 59.8145-70.8984 61.3281-70.8984C63.8184-70.8984 66.3574-72.8516 66.3574-75.7324C66.3574-77.1973 65.8203-78.2227 64.8438-79.1992L52.3926-91.1133C50.7812-92.6758 49.0723-93.2617 47.4121-93.2617C45.752-93.2617 44.043-92.6758 42.4316-91.1133L29.9805-79.1992C29.0039-78.2227 28.4668-77.1973 28.4668-75.7324C28.4668-72.8516 31.0059-70.8984 33.4961-70.8984C35.0098-70.8984 36.3281-71.5332 37.3047-72.5586L40.5762-76.0254L41.9434-79.3457L41.4062-73.877L41.4062-38.916C41.4062-35.7422 43.9941-32.959 47.4121-32.959Z"/>
  </g>
  <g id="Regular-S" transform="matrix(1 0 0 1 1396.01 696)">
   <path class="monochrome-0 hierarchical-0:secondary SFSymbolsPreview4D4D4D" d="M22.2168-0.830078L66.0156-0.830078C74.3652-0.830078 78.4668-4.88281 78.4668-13.0859L78.4668-50.6836C78.4668-58.8867 74.3652-62.9395 66.0156-62.9395L55.5176-62.9395L55.5176-55.9082L65.918-55.9082C69.3848-55.9082 71.4355-54.0039 71.4355-50.293L71.4355-13.4766C71.4355-9.76562 69.3848-7.86133 65.918-7.86133L22.3145-7.86133C18.7988-7.86133 16.7969-9.76562 16.7969-13.4766L16.7969-50.293C16.7969-54.0039 18.7988-55.9082 22.3145-55.9082L32.7148-55.9082L32.7148-62.9395L22.2168-62.9395C13.916-62.9395 9.76562-58.8867 9.76562-50.6836L9.76562-13.0859C9.76562-4.88281 13.916-0.830078 22.2168-0.830078ZM45.0195 17.5293L85.4492 17.5293C93.7012 17.5293 97.9004 13.4766 97.9004 5.27344L97.9004-32.3242C97.9004-40.5273 93.7012-44.5801 85.4492-44.5801L76.2207-44.5801L76.2207-37.5488L85.3516-37.5488C88.8672-37.5488 90.8203-35.6445 90.8203-31.9336L90.8203 4.88281C90.8203 8.59375 88.8672 10.498 85.3516 10.498L45.1172 10.498C41.6016 10.498 39.5996 8.59375 39.5996 4.88281L39.5996-4.3457L32.5684-4.3457L32.5684 5.27344C32.5684 13.4766 36.6699 17.5293 45.0195 17.5293Z"/>
   <path class="monochrome-1 hierarchical-1:primary SFSymbolsPreview212121" d="M44.0918-31.1035C45.9961-31.1035 47.6074-32.6172 47.6074-34.4727L47.6074-72.6074L47.3145-78.418L49.3652-76.2207L54.7363-70.3613C55.3711-69.6777 56.25-69.3359 57.0801-69.3359C58.9355-69.3359 60.3027-70.6055 60.3027-72.4121C60.3027-73.3398 59.9121-74.0234 59.2285-74.707L46.6309-86.7676C45.752-87.6465 45.0195-87.9395 44.0918-87.9395C43.2129-87.9395 42.4805-87.6465 41.5527-86.7676L28.9551-74.707C28.3203-74.0234 27.9297-73.3398 27.9297-72.4121C27.9297-70.6055 29.248-69.3359 31.1035-69.3359C31.9336-69.3359 32.8613-69.6777 33.4961-70.3613L38.8672-76.2207L40.918-78.418L40.625-72.6074L40.625-34.4727C40.625-32.6172 42.2363-31.1035 44.0918-31.1035Z"/>
  </g>
  <g id="Ultralight-S" transform="matrix(1 0 0 1 508.966 696)">
   <path class="monochrome-0 hierarchical-0:secondary SFSymbolsPreview4D4D4D" d="M19.7647-1.42041L64.063-1.42041C70.5962-1.42041 74.062-4.97363 74.062-11.4058L74.062-52.1821C74.062-58.6143 70.5962-62.1675 64.063-62.1675L52.7476-62.1675L52.7476-59.9497L63.9653-59.9497C68.9761-59.9497 71.8442-57.2734 71.8442-52.064L71.8442-11.5239C71.8442-6.31448 68.9761-3.63822 63.9653-3.63822L19.8623-3.63822C14.6665-3.63822 11.9834-6.31448 11.9834-11.5239L11.9834-52.064C11.9834-57.2734 14.6665-59.9497 19.8623-59.9497L31.1709-59.9497L31.1709-62.1675L19.7647-62.1675C13.2349-62.1675 9.76562-58.7051 9.76562-52.1821L9.76562-11.4058C9.76562-4.88281 13.2349-1.42041 19.7647-1.42041ZM40.1153 13.397L81.7256 13.397C88.252 13.397 91.7247 9.9346 91.7247 3.41164L91.7247-37.3193C91.7247-43.8877 88.252-47.3047 81.7256-47.3047L73.1782-47.3047L73.1782-45.1323L81.628-45.1323C86.8237-45.1323 89.5034-42.4106 89.5034-37.2465L89.5034 3.29347C89.5034 8.50293 86.8237 11.1792 81.628 11.1792L40.2129 11.1792C35.1988 11.1792 32.334 8.50293 32.334 3.29347L32.334-2.62013L30.1162-2.62013L30.1162 3.41164C30.1162 9.84378 33.5821 13.397 40.1153 13.397Z"/>
   <path class="monochrome-1 hierarchical-1:primary SFSymbolsPreview212121" d="M41.9121-29.9683C42.4995-29.9683 43.021-30.4829 43.021-31.0669L43.021-75.6045L42.9551-80.8701L47.8213-75.9482L55.5537-68.1817C55.7798-67.9522 56.1138-67.792 56.3989-67.792C56.8921-67.792 57.3965-68.2896 57.3965-68.8247C57.3965-69.1167 57.2783-69.3462 57.0488-69.5757L42.6802-83.9522C42.437-84.1499 42.2041-84.2613 41.9121-84.2613C41.6235-84.2613 41.3452-84.1499 41.144-83.9522L26.73-69.5757C26.5039-69.3462 26.3858-69.1167 26.3858-68.8247C26.3858-68.2896 26.8413-67.792 27.3799-67.792C27.6651-67.792 28.0025-67.9522 28.1831-68.1817L35.961-75.9482L40.8726-80.9155L40.8066-75.6045L40.8066-31.0669C40.8066-30.4829 41.3281-29.9683 41.9121-29.9683Z"/>
  </g>
 </g>
</svg>
