<?xml version="1.0" encoding="UTF-8"?>
<!--Generator: Apple Native CoreSVG 175-->
<!DOCTYPE svg
PUBLIC "-//W3C//DTD SVG 1.1//EN"
       "http://www.w3.org/Graphics/SVG/1.1/DTD/svg11.dtd">
<svg version="1.1" xmlns="http://www.w3.org/2000/svg" xmlns:xlink="http://www.w3.org/1999/xlink" width="3300" height="2200">
 <!--glyph: "uni100F3D.medium", point size: 100.0, font version: "17.3d3e1", template writer version: "65.1"-->
 <style>.multicolor-0:systemRedColor {fill:#FF3B30;opacity:1.0}

.hierarchical-0:secondary {fill:#4D4D4D}
.hierarchical-1:primary {fill:#212121}

.SFSymbolsPreviewFF3B30 {fill:#FF3B30;opacity:1.0}
</style>
 <g id="Notes">
  <rect height="2200" id="artboard" style="fill:white;opacity:1" width="3300" x="0" y="0"/>
  <line style="fill:none;stroke:black;opacity:1;stroke-width:0.5;" x1="263" x2="3036" y1="292" y2="292"/>
  <text style="stroke:none;fill:black;font-family:sans-serif;font-size:13;font-weight:bold;" transform="matrix(1 0 0 1 263 322)">Weight/Scale Variations</text>
  <text style="stroke:none;fill:black;font-family:sans-serif;font-size:13;text-anchor:middle;" transform="matrix(1 0 0 1 559.711 322)">Ultralight</text>
  <text style="stroke:none;fill:black;font-family:sans-serif;font-size:13;text-anchor:middle;" transform="matrix(1 0 0 1 856.422 322)">Thin</text>
  <text style="stroke:none;fill:black;font-family:sans-serif;font-size:13;text-anchor:middle;" transform="matrix(1 0 0 1 1153.13 322)">Light</text>
  <text style="stroke:none;fill:black;font-family:sans-serif;font-size:13;text-anchor:middle;" transform="matrix(1 0 0 1 1449.84 322)">Regular</text>
  <text style="stroke:none;fill:black;font-family:sans-serif;font-size:13;text-anchor:middle;" transform="matrix(1 0 0 1 1746.56 322)">Medium</text>
  <text style="stroke:none;fill:black;font-family:sans-serif;font-size:13;text-anchor:middle;" transform="matrix(1 0 0 1 2043.27 322)">Semibold</text>
  <text style="stroke:none;fill:black;font-family:sans-serif;font-size:13;text-anchor:middle;" transform="matrix(1 0 0 1 2339.98 322)">Bold</text>
  <text style="stroke:none;fill:black;font-family:sans-serif;font-size:13;text-anchor:middle;" transform="matrix(1 0 0 1 2636.69 322)">Heavy</text>
  <text style="stroke:none;fill:black;font-family:sans-serif;font-size:13;text-anchor:middle;" transform="matrix(1 0 0 1 2933.4 322)">Black</text>
  <line style="fill:none;stroke:black;opacity:1;stroke-width:0.5;" x1="263" x2="3036" y1="1903" y2="1903"/>
  <g transform="matrix(1 0 0 1 263 1933)">
   <path d="M9.24805 0.830078Q10.8691 0.830078 12.2949 0.214844Q13.7207-0.400391 14.8096-1.49414Q15.8984-2.58789 16.5186-4.01367Q17.1387-5.43945 17.1387-7.05078Q17.1387-8.66211 16.5186-10.0879Q15.8984-11.5137 14.8047-12.6074Q13.7109-13.7012 12.2852-14.3164Q10.8594-14.9316 9.23828-14.9316Q7.62695-14.9316 6.20117-14.3164Q4.77539-13.7012 3.69141-12.6074Q2.60742-11.5137 1.9873-10.0879Q1.36719-8.66211 1.36719-7.05078Q1.36719-5.43945 1.9873-4.01367Q2.60742-2.58789 3.69629-1.49414Q4.78516-0.400391 6.21094 0.214844Q7.63672 0.830078 9.24805 0.830078ZM9.24805-0.654297Q7.91992-0.654297 6.7627-1.14746Q5.60547-1.64062 4.73145-2.51953Q3.85742-3.39844 3.36426-4.56055Q2.87109-5.72266 2.87109-7.05078Q2.87109-8.37891 3.35938-9.54102Q3.84766-10.7031 4.72168-11.582Q5.5957-12.4609 6.75293-12.9541Q7.91016-13.4473 9.23828-13.4473Q10.5762-13.4473 11.7334-12.9541Q12.8906-12.4609 13.7695-11.582Q14.6484-10.7031 15.1465-9.54102Q15.6445-8.37891 15.6445-7.05078Q15.6445-5.72266 15.1514-4.56055Q14.6582-3.39844 13.7842-2.51953Q12.9102-1.64062 11.748-1.14746Q10.5859-0.654297 9.24805-0.654297ZM5.6543-7.05078Q5.6543-6.72852 5.85938-6.52832Q6.06445-6.32812 6.40625-6.32812L8.51562-6.32812L8.51562-4.20898Q8.51562-3.88672 8.71094-3.67676Q8.90625-3.4668 9.23828-3.4668Q9.56055-3.4668 9.77051-3.67676Q9.98047-3.88672 9.98047-4.20898L9.98047-6.32812L12.0898-6.32812Q12.4219-6.32812 12.627-6.52832Q12.832-6.72852 12.832-7.05078Q12.832-7.38281 12.627-7.58789Q12.4219-7.79297 12.0898-7.79297L9.98047-7.79297L9.98047-9.90234Q9.98047-10.2344 9.77051-10.4443Q9.56055-10.6543 9.23828-10.6543Q8.90625-10.6543 8.71094-10.4443Q8.51562-10.2344 8.51562-9.90234L8.51562-7.79297L6.40625-7.79297Q6.06445-7.79297 5.85938-7.58789Q5.6543-7.38281 5.6543-7.05078Z"/>
  </g>
  <g transform="matrix(1 0 0 1 281.867 1933)">
   <path d="M11.709 2.91016Q13.75 2.91016 15.5518 2.12891Q17.3535 1.34766 18.7305-0.0292969Q20.1074-1.40625 20.8887-3.20801Q21.6699-5.00977 21.6699-7.05078Q21.6699-9.0918 20.8887-10.8936Q20.1074-12.6953 18.7305-14.0723Q17.3535-15.4492 15.5469-16.2305Q13.7402-17.0117 11.6992-17.0117Q9.6582-17.0117 7.85645-16.2305Q6.05469-15.4492 4.68262-14.0723Q3.31055-12.6953 2.5293-10.8936Q1.74805-9.0918 1.74805-7.05078Q1.74805-5.00977 2.5293-3.20801Q3.31055-1.40625 4.6875-0.0292969Q6.06445 1.34766 7.86621 2.12891Q9.66797 2.91016 11.709 2.91016ZM11.709 1.25Q9.98047 1.25 8.47656 0.605469Q6.97266-0.0390625 5.83496-1.17676Q4.69727-2.31445 4.05762-3.81836Q3.41797-5.32227 3.41797-7.05078Q3.41797-8.7793 4.05762-10.2832Q4.69727-11.7871 5.83008-12.9297Q6.96289-14.0723 8.4668-14.7119Q9.9707-15.3516 11.6992-15.3516Q13.4277-15.3516 14.9316-14.7119Q16.4355-14.0723 17.5781-12.9297Q18.7207-11.7871 19.3652-10.2832Q20.0098-8.7793 20.0098-7.05078Q20.0098-5.32227 19.3701-3.81836Q18.7305-2.31445 17.5928-1.17676Q16.4551-0.0390625 14.9463 0.605469Q13.4375 1.25 11.709 1.25ZM7.17773-7.05078Q7.17773-6.69922 7.41211-6.47461Q7.64648-6.25 8.01758-6.25L10.8887-6.25L10.8887-3.36914Q10.8887-2.99805 11.1133-2.76855Q11.3379-2.53906 11.6895-2.53906Q12.0605-2.53906 12.29-2.76855Q12.5195-2.99805 12.5195-3.36914L12.5195-6.25L15.4004-6.25Q15.7715-6.25 16.001-6.47461Q16.2305-6.69922 16.2305-7.05078Q16.2305-7.42188 16.001-7.65137Q15.7715-7.88086 15.4004-7.88086L12.5195-7.88086L12.5195-10.752Q12.5195-11.1328 12.29-11.3623Q12.0605-11.5918 11.6895-11.5918Q11.3379-11.5918 11.1133-11.3574Q10.8887-11.123 10.8887-10.752L10.8887-7.88086L8.01758-7.88086Q7.63672-7.88086 7.40723-7.65137Q7.17773-7.42188 7.17773-7.05078Z"/>
  </g>
  <g transform="matrix(1 0 0 1 305.646 1933)">
   <path d="M14.9707 5.66406Q17.0605 5.66406 18.96 5.01465Q20.8594 4.36523 22.4512 3.19336Q24.043 2.02148 25.2197 0.429688Q26.3965-1.16211 27.0459-3.06641Q27.6953-4.9707 27.6953-7.05078Q27.6953-9.14062 27.0459-11.04Q26.3965-12.9395 25.2197-14.5312Q24.043-16.123 22.4512-17.2998Q20.8594-18.4766 18.9551-19.126Q17.0508-19.7754 14.9609-19.7754Q12.8711-19.7754 10.9717-19.126Q9.07227-18.4766 7.48535-17.2998Q5.89844-16.123 4.72168-14.5312Q3.54492-12.9395 2.90039-11.04Q2.25586-9.14062 2.25586-7.05078Q2.25586-4.9707 2.90527-3.06641Q3.55469-1.16211 4.72656 0.429688Q5.89844 2.02148 7.49023 3.19336Q9.08203 4.36523 10.9814 5.01465Q12.8809 5.66406 14.9707 5.66406ZM14.9707 3.84766Q13.1641 3.84766 11.5283 3.2959Q9.89258 2.74414 8.53516 1.74805Q7.17773 0.751953 6.17676-0.610352Q5.17578-1.97266 4.62891-3.6084Q4.08203-5.24414 4.08203-7.05078Q4.08203-8.86719 4.62891-10.5029Q5.17578-12.1387 6.17188-13.501Q7.16797-14.8633 8.52539-15.8594Q9.88281-16.8555 11.5186-17.4023Q13.1543-17.9492 14.9609-17.9492Q16.7773-17.9492 18.4131-17.4023Q20.0488-16.8555 21.4111-15.8594Q22.7734-14.8633 23.7695-13.501Q24.7656-12.1387 25.3174-10.5029Q25.8691-8.86719 25.8691-7.05078Q25.8789-5.24414 25.332-3.6084Q24.7852-1.97266 23.7842-0.610352Q22.7832 0.751953 21.4209 1.74805Q20.0586 2.74414 18.4229 3.2959Q16.7871 3.84766 14.9707 3.84766ZM9.19922-7.05078Q9.19922-6.66992 9.45801-6.4209Q9.7168-6.17188 10.1172-6.17188L14.0625-6.17188L14.0625-2.2168Q14.0625-1.81641 14.3115-1.55762Q14.5605-1.29883 14.9512-1.29883Q15.3516-1.29883 15.6104-1.55273Q15.8691-1.80664 15.8691-2.2168L15.8691-6.17188L19.8242-6.17188Q20.2246-6.17188 20.4785-6.4209Q20.7324-6.66992 20.7324-7.05078Q20.7324-7.46094 20.4785-7.71484Q20.2246-7.96875 19.8242-7.96875L15.8691-7.96875L15.8691-11.9141Q15.8691-12.3242 15.6104-12.583Q15.3516-12.8418 14.9512-12.8418Q14.5605-12.8418 14.3115-12.583Q14.0625-12.3242 14.0625-11.9141L14.0625-7.96875L10.1172-7.96875Q9.70703-7.96875 9.45312-7.71484Q9.19922-7.46094 9.19922-7.05078Z"/>
  </g>
  <text style="stroke:none;fill:black;font-family:sans-serif;font-size:13;font-weight:bold;" transform="matrix(1 0 0 1 263 1953)">Design Variations</text>
  <text style="stroke:none;fill:black;font-family:sans-serif;font-size:13;" transform="matrix(1 0 0 1 263 1971)">Symbols are supported in up to nine weights and three scales.</text>
  <text style="stroke:none;fill:black;font-family:sans-serif;font-size:13;" transform="matrix(1 0 0 1 263 1989)">For optimal layout with text and other symbols, vertically align</text>
  <text style="stroke:none;fill:black;font-family:sans-serif;font-size:13;" transform="matrix(1 0 0 1 263 2007)">symbols with the adjacent text.</text>
  <line style="fill:none;stroke:#00AEEF;stroke-width:0.5;opacity:1.0;" x1="776" x2="776" y1="1919" y2="1933"/>
  <g transform="matrix(1 0 0 1 776 1933)">
   <path d="M3.31055 0.15625Q3.70117 0.15625 3.91602-0.00976562Q4.13086-0.175781 4.26758-0.585938L5.52734-4.0332L11.2891-4.0332L12.5488-0.585938Q12.6855-0.175781 12.9004-0.00976562Q13.1152 0.15625 13.4961 0.15625Q13.8867 0.15625 14.1162-0.0585938Q14.3457-0.273438 14.3457-0.644531Q14.3457-0.869141 14.2383-1.17188L9.6582-13.3691Q9.48242-13.8184 9.17969-14.043Q8.87695-14.2676 8.4082-14.2676Q7.5-14.2676 7.17773-13.3789L2.59766-1.16211Q2.49023-0.859375 2.49023-0.634766Q2.49023-0.263672 2.70996-0.0537109Q2.92969 0.15625 3.31055 0.15625ZM6.00586-5.51758L8.37891-12.0898L8.42773-12.0898L10.8008-5.51758Z"/>
  </g>
  <line style="fill:none;stroke:#00AEEF;stroke-width:0.5;opacity:1.0;" x1="793.197" x2="793.197" y1="1919" y2="1933"/>
  <text style="stroke:none;fill:black;font-family:sans-serif;font-size:13;font-weight:bold;" transform="matrix(1 0 0 1 776 1953)">Margins</text>
  <text style="stroke:none;fill:black;font-family:sans-serif;font-size:13;" transform="matrix(1 0 0 1 776 1971)">Leading and trailing margins on the left and right side of each symbol</text>
  <text style="stroke:none;fill:black;font-family:sans-serif;font-size:13;" transform="matrix(1 0 0 1 776 1989)">can be adjusted by modifying the x-location of the margin guidelines.</text>
  <text style="stroke:none;fill:black;font-family:sans-serif;font-size:13;" transform="matrix(1 0 0 1 776 2007)">Modifications are automatically applied proportionally to all</text>
  <text style="stroke:none;fill:black;font-family:sans-serif;font-size:13;" transform="matrix(1 0 0 1 776 2025)">scales and weights.</text>
  <g transform="matrix(1 0 0 1 1289 1933)">
   <path d="M2.8418 1.86523L4.54102 3.57422Q5.18555 4.22852 5.90332 4.17969Q6.62109 4.13086 7.31445 3.35938L18.0078-8.42773L17.041-9.4043L6.42578 2.27539Q6.16211 2.57812 5.89355 2.61719Q5.625 2.65625 5.27344 2.30469L4.10156 1.14258Q3.75 0.791016 3.79395 0.522461Q3.83789 0.253906 4.14062-0.0195312L15.6152-10.8203L14.6387-11.7871L3.04688-0.898438Q2.30469-0.214844 2.25098 0.498047Q2.19727 1.21094 2.8418 1.86523ZM9.25781-16.3281Q8.94531-16.0254 8.90625-15.6348Q8.86719-15.2441 9.04297-14.9512Q9.21875-14.6777 9.55566-14.541Q9.89258-14.4043 10.3809-14.5215Q11.4746-14.7754 12.5977-14.7314Q13.7207-14.6875 14.7949-13.9844L14.209-12.5293Q13.9551-11.9043 14.0674-11.4404Q14.1797-10.9766 14.5801-10.5664L16.875-8.25195Q17.2363-7.88086 17.5781-7.82227Q17.9199-7.76367 18.3398-7.8418L19.4043-8.03711L20.0684-7.36328L20.0293-6.80664Q20-6.43555 20.1221-6.12305Q20.2441-5.81055 20.6055-5.44922L21.3672-4.70703Q21.7285-4.3457 22.1533-4.33105Q22.5781-4.31641 22.9297-4.66797L25.8398-7.58789Q26.1914-7.93945 26.1816-8.35449Q26.1719-8.76953 25.8105-9.13086L25.0391-9.89258Q24.6875-10.2539 24.3799-10.3857Q24.0723-10.5176 23.7109-10.4883L23.1348-10.4395L22.4902-11.0742L22.7344-12.1973Q22.832-12.6172 22.6953-12.9834Q22.5586-13.3496 22.1191-13.7891L19.9219-15.9766Q18.6719-17.2168 17.2607-17.8369Q15.8496-18.457 14.4189-18.4814Q12.9883-18.5059 11.665-17.959Q10.3418-17.4121 9.25781-16.3281ZM10.752-15.957Q11.6602-16.6211 12.7002-16.9043Q13.7402-17.1875 14.8047-17.085Q15.8691-16.9824 16.8701-16.5137Q17.8711-16.0449 18.7012-15.2051L21.1328-12.793Q21.3086-12.6172 21.3525-12.4512Q21.3965-12.2852 21.3379-12.0312L21.0156-10.5469L22.5195-9.0625L23.5059-9.12109Q23.6914-9.13086 23.7891-9.09668Q23.8867-9.0625 24.0332-8.91602L24.6094-8.33984L22.168-5.89844L21.5918-6.47461Q21.4453-6.62109 21.4062-6.71875Q21.3672-6.81641 21.377-7.01172L21.4453-7.98828L19.9512-9.47266L18.4277-9.21875Q18.1836-9.16992 18.042-9.2041Q17.9004-9.23828 17.7148-9.41406L15.7129-11.416Q15.5176-11.5918 15.4932-11.7529Q15.4688-11.9141 15.5859-12.1875L16.4648-14.2773Q15.293-15.3711 13.8281-15.791Q12.3633-16.2109 10.8398-15.7617Q10.7227-15.7324 10.6885-15.8057Q10.6543-15.8789 10.752-15.957Z"/>
  </g>
  <text style="stroke:none;fill:black;font-family:sans-serif;font-size:13;font-weight:bold;" transform="matrix(1 0 0 1 1289 1953)">Exporting</text>
  <text style="stroke:none;fill:black;font-family:sans-serif;font-size:13;" transform="matrix(1 0 0 1 1289 1971)">Symbols should be outlined when exporting to ensure the</text>
  <text style="stroke:none;fill:black;font-family:sans-serif;font-size:13;" transform="matrix(1 0 0 1 1289 1989)">design is preserved when submitting to Xcode.</text>
  <text id="template-version" style="stroke:none;fill:black;font-family:sans-serif;font-size:13;text-anchor:end;" transform="matrix(1 0 0 1 3036 1933)">Template v.3.0</text>
  <text style="stroke:none;fill:black;font-family:sans-serif;font-size:13;text-anchor:end;" transform="matrix(1 0 0 1 3036 1951)">Requires Xcode 13 or greater</text>
  <text id="descriptive-name" style="stroke:none;fill:black;font-family:sans-serif;font-size:13;text-anchor:end;" transform="matrix(1 0 0 1 3036 1969)">Generated from trash.square</text>
  <text style="stroke:none;fill:black;font-family:sans-serif;font-size:13;text-anchor:end;" transform="matrix(1 0 0 1 3036 1987)">Typeset at 100 points</text>
  <text style="stroke:none;fill:black;font-family:sans-serif;font-size:13;" transform="matrix(1 0 0 1 263 726)">Small</text>
  <text style="stroke:none;fill:black;font-family:sans-serif;font-size:13;" transform="matrix(1 0 0 1 263 1156)">Medium</text>
  <text style="stroke:none;fill:black;font-family:sans-serif;font-size:13;" transform="matrix(1 0 0 1 263 1586)">Large</text>
 </g>
 <g id="Guides">
  <g id="H-reference" style="fill:#27AAE1;stroke:none;" transform="matrix(1 0 0 1 339 696)">
   <path d="M0.993347 0L3.6377 0L29.3282-67.1326L30.0301-67.1326L30.0301-70.459L28.1227-70.459ZM11.6882-24.4797L46.9818-24.4797L46.2311-26.7288L12.4382-26.7288ZM55.1193 0L57.7637 0L30.6381-70.459L29.4327-70.459L29.4327-67.1326Z"/>
  </g>
  <line id="Baseline-S" style="fill:none;stroke:#27AAE1;opacity:1;stroke-width:0.5;" x1="263" x2="3036" y1="696" y2="696"/>
  <line id="Capline-S" style="fill:none;stroke:#27AAE1;opacity:1;stroke-width:0.5;" x1="263" x2="3036" y1="625.541" y2="625.541"/>
  <g id="H-reference" style="fill:#27AAE1;stroke:none;" transform="matrix(1 0 0 1 339 1126)">
   <path d="M0.993347 0L3.6377 0L29.3282-67.1326L30.0301-67.1326L30.0301-70.459L28.1227-70.459ZM11.6882-24.4797L46.9818-24.4797L46.2311-26.7288L12.4382-26.7288ZM55.1193 0L57.7637 0L30.6381-70.459L29.4327-70.459L29.4327-67.1326Z"/>
  </g>
  <line id="Baseline-M" style="fill:none;stroke:#27AAE1;opacity:1;stroke-width:0.5;" x1="263" x2="3036" y1="1126" y2="1126"/>
  <line id="Capline-M" style="fill:none;stroke:#27AAE1;opacity:1;stroke-width:0.5;" x1="263" x2="3036" y1="1055.54" y2="1055.54"/>
  <g id="H-reference" style="fill:#27AAE1;stroke:none;" transform="matrix(1 0 0 1 339 1556)">
   <path d="M0.993347 0L3.6377 0L29.3282-67.1326L30.0301-67.1326L30.0301-70.459L28.1227-70.459ZM11.6882-24.4797L46.9818-24.4797L46.2311-26.7288L12.4382-26.7288ZM55.1193 0L57.7637 0L30.6381-70.459L29.4327-70.459L29.4327-67.1326Z"/>
  </g>
  <line id="Baseline-L" style="fill:none;stroke:#27AAE1;opacity:1;stroke-width:0.5;" x1="263" x2="3036" y1="1556" y2="1556"/>
  <line id="Capline-L" style="fill:none;stroke:#27AAE1;opacity:1;stroke-width:0.5;" x1="263" x2="3036" y1="1485.54" y2="1485.54"/>
  <line id="left-margin-Ultralight-S" style="fill:none;stroke:#00AEEF;stroke-width:0.5;opacity:1.0;" x1="516.35" x2="516.35" y1="600.785" y2="720.121"/>
  <line id="right-margin-Ultralight-S" style="fill:none;stroke:#00AEEF;stroke-width:0.5;opacity:1.0;" x1="603.073" x2="603.073" y1="600.785" y2="720.121"/>
  <line id="left-margin-Regular-S" style="fill:none;stroke:#00AEEF;stroke-width:0.5;opacity:1.0;" x1="1404.51" x2="1404.51" y1="600.785" y2="720.121"/>
  <line id="right-margin-Regular-S" style="fill:none;stroke:#00AEEF;stroke-width:0.5;opacity:1.0;" x1="1495.18" x2="1495.18" y1="600.785" y2="720.121"/>
  <line id="left-margin-Black-S" style="fill:none;stroke:#00AEEF;stroke-width:0.5;opacity:1.0;" x1="2885.5" x2="2885.5" y1="600.785" y2="720.121"/>
  <line id="right-margin-Black-S" style="fill:none;stroke:#00AEEF;stroke-width:0.5;opacity:1.0;" x1="2981.3" x2="2981.3" y1="600.785" y2="720.121"/>
 </g>
 <g id="Symbols">
  <g id="Black-S" transform="matrix(1 0 0 1 2885.5 696)">
   <path class="multicolor-0:systemRedColor hierarchical-0:secondary SFSymbolsPreviewFF3B30" d="M25 3.36914L70.8008 3.36914Q77.9785 3.36914 82.0068-0.65918Q86.0352-4.6875 86.0352-11.8652L86.0352-57.666Q86.0352-64.8438 82.0068-68.8721Q77.9785-72.9004 70.8008-72.9004L25-72.9004Q17.8223-72.9004 13.7939-68.8721Q9.76562-64.8438 9.76562-57.666L9.76562-11.8652Q9.76562-4.6875 13.7939-0.65918Q17.8223 3.36914 25 3.36914ZM27.2461-10.791Q25.5859-10.791 24.7559-11.5479Q23.9258-12.3047 23.9258-14.1113L23.9258-55.4199Q23.9258-57.2754 24.7559-58.0078Q25.5859-58.7402 27.2461-58.7402L68.5547-58.7402Q70.2637-58.7402 71.0693-58.0078Q71.875-57.2754 71.875-55.4199L71.875-14.1113Q71.875-12.3047 71.0693-11.5479Q70.2637-10.791 68.5547-10.791Z"/>
   <path class="multicolor-0:systemRedColor hierarchical-1:primary SFSymbolsPreviewFF3B30" d="M40.625-14.7949L55.1758-14.7949Q57.8613-14.7949 59.2773-16.0889Q60.6934-17.3828 60.8398-20.0195L62.0605-44.2383L63.6719-44.2383Q64.9414-44.2383 65.7227-44.9707Q66.5039-45.7031 66.5039-46.9238Q66.5039-48.1445 65.7227-48.8525Q64.9414-49.5605 63.6719-49.5605L57.2266-49.5605L57.2266-50.8789Q57.2266-53.5645 55.4688-55.0781Q53.7109-56.5918 50.3906-56.5918L45.4102-56.5918Q42.1387-56.5918 40.3564-55.0781Q38.5742-53.5645 38.5742-50.8789L38.5742-49.5605L32.1289-49.5605Q30.9082-49.5605 30.127-48.8525Q29.3457-48.1445 29.2969-46.9238Q29.248-45.7031 30.0781-44.9707Q30.9082-44.2383 32.1289-44.2383L33.7891-44.2383L34.9609-20.0195Q35.0586-17.3828 36.5234-16.0889Q37.9883-14.7949 40.625-14.7949ZM47.9492-20.3125Q46.3867-20.3125 46.3867-21.8262L46.3867-40.6738Q46.3867-42.1387 47.9492-42.1387Q49.4629-42.1387 49.4629-40.6738L49.4629-21.8262Q49.4629-20.3125 47.9492-20.3125ZM42.041-20.3125Q40.625-20.3125 40.5273-21.8262L39.9902-40.4785Q39.8926-42.1387 41.5039-42.1387Q42.9688-42.1387 43.0664-40.5762L43.6035-21.875Q43.7012-20.3125 42.041-20.3125ZM53.8086-20.3125Q52.1484-20.3125 52.2461-21.875L52.7832-40.5762Q52.8809-42.1387 54.3457-42.1387Q55.957-42.1387 55.8594-40.4785L55.3223-21.8262Q55.2246-20.3125 53.8086-20.3125ZM43.75-49.5605L43.7988-51.0254Q43.8965-52.3926 45.3613-52.3926L50.4883-52.3926Q51.9531-52.3926 52.0508-51.0254L52.0996-49.5605Z"/>
  </g>
  <g id="Regular-S" transform="matrix(1 0 0 1 1404.51 696)">
   <path class="multicolor-0:systemRedColor hierarchical-0:secondary SFSymbolsPreviewFF3B30" d="M22.2168 0.830078L68.457 0.830078Q74.707 0.830078 77.8076-2.24609Q80.9082-5.32227 80.9082-11.4746L80.9082-58.0566Q80.9082-64.209 77.8076-67.2852Q74.707-70.3613 68.457-70.3613L22.2168-70.3613Q16.0156-70.3613 12.8906-67.2852Q9.76562-64.209 9.76562-58.0566L9.76562-11.4746Q9.76562-5.32227 12.8906-2.24609Q16.0156 0.830078 22.2168 0.830078ZM22.3145-6.25Q19.6777-6.25 18.2373-7.6416Q16.7969-9.0332 16.7969-11.8164L16.7969-57.7148Q16.7969-60.4492 18.2373-61.8652Q19.6777-63.2812 22.3145-63.2812L68.3594-63.2812Q70.9961-63.2812 72.4365-61.8652Q73.877-60.4492 73.877-57.7148L73.877-11.8164Q73.877-9.0332 72.4365-7.6416Q70.9961-6.25 68.3594-6.25Z"/>
   <path class="multicolor-0:systemRedColor hierarchical-1:primary SFSymbolsPreviewFF3B30" d="M35.3516-12.3047L55.2734-12.3047Q57.2266-12.3047 58.3252-13.3301Q59.4238-14.3555 59.5215-16.3574L60.6934-45.9961L63.5742-45.9961Q64.3555-45.9961 64.8682-46.5332Q65.3809-47.0703 65.3809-47.8027Q65.4297-48.5352 64.8926-49.0723Q64.3555-49.6094 63.5742-49.6094L54.7363-49.6094L54.7363-52.5391Q54.7363-55.0293 53.1982-56.4697Q51.6602-57.9102 49.0723-57.9102L41.4551-57.9102Q38.8672-57.9102 37.3535-56.4697Q35.8398-55.0293 35.8398-52.5391L35.8398-49.6094L26.9531-49.6094Q26.2207-49.6094 25.708-49.0723Q25.1953-48.5352 25.1953-47.8027Q25.1953-47.0703 25.708-46.5332Q26.2207-45.9961 26.9531-45.9961L29.8828-45.9961L31.1523-16.3574Q31.2012-14.3555 32.2754-13.3301Q33.3496-12.3047 35.3516-12.3047ZM45.2637-18.2129Q43.7988-18.2129 43.7988-19.5801L43.7988-41.6016Q43.7988-43.0176 45.2637-43.0176Q46.8262-43.0176 46.8262-41.6016L46.8262-19.5801Q46.8262-18.2129 45.2637-18.2129ZM38.6719-18.2129Q37.207-18.2129 37.207-19.5801L36.6211-41.6016Q36.6211-43.0176 38.0859-43.0176Q39.5508-43.0176 39.5508-41.6016L40.1367-19.5801Q40.1367-18.2129 38.6719-18.2129ZM51.8555-18.2129Q50.3906-18.2129 50.3906-19.5801L50.9766-41.6016Q51.0254-43.0176 52.4902-43.0176Q53.9551-43.0176 53.9062-41.6016L53.3203-19.5801Q53.3203-18.2129 51.8555-18.2129ZM40.1367-49.6094L40.1367-52.2949Q40.1367-53.8086 41.748-53.8086L48.8281-53.8086Q50.3906-53.8086 50.3906-52.2949L50.3906-49.6094Z"/>
  </g>
  <g id="Ultralight-S" transform="matrix(1 0 0 1 516.35 696)">
   <path class="multicolor-0:systemRedColor hierarchical-0:secondary SFSymbolsPreviewFF3B30" d="M19.7754-1.12305L66.9434-1.12305Q71.875-1.12305 74.4141-3.71094Q76.9531-6.29883 76.9531-11.1328L76.9531-58.3496Q76.9531-63.1836 74.4141-65.7471Q71.875-68.3105 66.9434-68.3105L19.7754-68.3105Q14.8438-68.3105 12.3047-65.7715Q9.76562-63.2324 9.76562-58.3496L9.76562-11.1328Q9.76562-6.20117 12.3047-3.66211Q14.8438-1.12305 19.7754-1.12305ZM19.873-3.32031Q15.9668-3.32031 13.9648-5.32227Q11.9629-7.32422 11.9629-11.2305L11.9629-58.2031Q11.9629-62.1094 13.9648-64.1113Q15.9668-66.1133 19.873-66.1133L66.8457-66.1133Q70.6543-66.1133 72.7051-64.1113Q74.7559-62.1094 74.7559-58.2031L74.7559-11.2305Q74.7559-7.32422 72.7051-5.32227Q70.6543-3.32031 66.8457-3.32031Z"/>
   <path class="multicolor-0:systemRedColor hierarchical-1:primary SFSymbolsPreviewFF3B30" d="M33.9355-12.207L53.0762-12.207Q54.7363-12.207 55.9326-13.3301Q57.1289-14.4531 57.2266-16.0645L58.9355-48.9258L62.6465-48.9258Q63.0859-48.9258 63.3545-49.1943Q63.623-49.4629 63.623-49.9023Q63.623-50.2441 63.3545-50.5615Q63.0859-50.8789 62.6465-50.8789L52.2461-50.8789L52.2461-54.541Q52.2461-56.3477 50.9766-57.5439Q49.707-58.7402 47.6074-58.7402L39.3555-58.7402Q37.2559-58.7402 36.0107-57.5439Q34.7656-56.3477 34.7656-54.541L34.7656-50.8789L24.0723-50.8789Q23.6816-50.8789 23.3643-50.5615Q23.0469-50.2441 23.0469-49.9023Q23.0469-49.4629 23.3643-49.1943Q23.6816-48.9258 24.0723-48.9258L28.0762-48.9258L29.7852-16.0645Q29.8828-14.4531 31.0547-13.3301Q32.2266-12.207 33.9355-12.207ZM43.2617-18.2129Q42.2363-18.2129 42.2363-19.1895L42.2363-43.0664Q42.2363-43.9941 43.2617-43.9941Q44.2871-43.9941 44.2871-43.0664L44.2871-19.1895Q44.2871-18.2129 43.2617-18.2129ZM36.9141-18.1641Q36.084-18.1641 36.0352-19.0918L34.375-43.0176Q34.2773-43.9941 35.4492-43.9941Q36.4258-43.9941 36.4746-43.1152L37.8418-19.1895Q37.9395-18.1641 36.9141-18.1641ZM49.5605-18.1641Q48.584-18.1641 48.6328-19.1895L50.0488-43.1152Q50.0977-43.9941 51.0742-43.9941Q52.1973-43.9941 52.0996-43.0176L50.4883-19.0918Q50.3906-18.1641 49.5605-18.1641ZM36.6211-50.8789L36.6211-54.3945Q36.6211-56.6895 39.2578-56.6895L47.3633-56.6895Q50-56.6895 50-54.3945L50-50.8789Z"/>
  </g>
 </g>
</svg>
